#!OML:ASF F:\VICON\USERDATA\INSTALL\rory3\rory3.ASF
:FULLY-SPECIFIED
:DEGREES
564
root 1.04699 15.2129 -5.90384 -4.45583 -6.76713 1.546
lowerback -1.32756 9.2546 9.99844
upperback -2.01483 12.3583 -5.4787
thorax 1.93205 6.27829 -10.6318
lowerneck -0.632611 -4.91683 -10.7827
upperneck 48.4078 -1.53675 -7.44932
head 18.9935 -3.35304 -1.91294
rclavicle -7.23576e-014 -3.02153e-014
rhumerus 58.1664 -1.19318 -71.7656
rradius 137.14
rwrist -60.2973
rhand -2.16615 -41.3901
rfingers 7.12502
rthumb 23.514 -69.9729
lclavicle -7.23576e-014 -3.02153e-014
lhumerus -36.7461 -27.6042 82.7451
lradius 35.7004
lwrist 19.5651
lhand -15.295 -25.3342
lfingers 7.12502
lthumb 10.8802 4.36397
rfemur -22.7214 -28.7458 24.8707
rtibia 70.1567
rfoot -48.9523 -38.1787
rtoes 10.1114
lfemur -34.1449 -18.3887 0.682998
ltibia 16.655
lfoot 13.6983 -3.97231
ltoes -16.1861
565
root 1.04604 15.212 -5.90384 -4.50523 -6.7442 1.52002
lowerback -1.26917 9.25063 10.0474
upperback -2.00534 12.3581 -5.47567
thorax 1.91908 6.2784 -10.6646
lowerneck -0.646972 -4.92002 -11.0342
upperneck 48.5238 -1.56329 -7.25527
head 19.096 -3.39015 -1.79015
rclavicle -1.03567e-013 9.54166e-015
rhumerus 58.3706 -1.08017 -71.8308
rradius 137.207
rwrist -60.3005
rhand -1.84905 -41.044
rfingers 7.12502
rthumb 23.8182 -69.5875
lclavicle -1.03567e-013 9.54166e-015
lhumerus -36.9404 -27.4722 82.7477
lradius 35.8603
lwrist 19.7291
lhand -15.1897 -24.7718
lfingers 7.12502
lthumb 10.9818 4.92097
rfemur -22.6072 -28.7159 24.8476
rtibia 70.1778
rfoot -49.4737 -37.5867
rtoes 10.6655
lfemur -34.1188 -18.3983 0.685741
ltibia 16.6875
lfoot 13.6961 -3.98679
ltoes -16.1431
566
root 1.04482 15.2085 -5.90658 -4.48539 -6.75477 1.44724
lowerback -1.16679 9.28026 10.1199
upperback -2.05 12.4071 -5.46277
thorax 1.83948 6.29675 -10.706
lowerneck -0.748472 -4.92856 -11.1738
upperneck 48.6894 -1.56115 -7.13956
head 19.2506 -3.40569 -1.72764
rclavicle -9.40251e-014 -2.06736e-014
rhumerus 58.5267 -1.06568 -71.9075
rradius 137.324
rwrist -60.2694
rhand 0.182353 -39.9473
rfingers 7.12502
rthumb 25.765 -68.2228
lclavicle -9.40251e-014 -2.06736e-014
lhumerus -37.2135 -27.3502 82.7694
lradius 36.087
lwrist 19.7008
lhand -15.1885 -25.3084
lfingers 7.12502
lthumb 10.9829 4.3843
rfemur -22.5967 -28.6181 24.9318
rtibia 70.2197
rfoot -50.2617 -36.5737
rtoes 11.8217
lfemur -34.1715 -18.3433 0.77329
ltibia 16.751
lfoot 13.6609 -4.02108
ltoes -16.3004
567
root 1.04368 15.207 -5.90487 -4.42618 -6.77202 1.39205
lowerback -1.0746 9.34092 10.2494
upperback -2.14135 12.4993 -5.51458
thorax 1.75411 6.33604 -10.8449
lowerneck -0.847545 -4.97492 -11.1661
upperneck 48.8732 -1.59705 -7.13037
head 19.4092 -3.42333 -1.75021
rclavicle -1.18873e-013 -2.54444e-014
rhumerus 58.5763 -1.11129 -72.0732
rradius 137.444
rwrist -60.2262
rhand 0.121254 -39.3486
rfingers 7.12502
rthumb 25.7065 -67.6326
lclavicle -1.18873e-013 -2.54444e-014
lhumerus -37.3352 -27.1921 82.7253
lradius 36.0421
lwrist 19.6038
lhand -15.1255 -25.2715
lfingers 7.12502
lthumb 11.0437 4.41795
rfemur -22.6778 -28.5943 25.0409
rtibia 70.2389
rfoot -50.2595 -36.6559
rtoes 11.9486
lfemur -34.2625 -18.2619 0.83664
ltibia 16.8385
lfoot 13.594 -4.05499
ltoes -16.38
568
root 1.04339 15.2053 -5.90255 -4.39676 -6.77483 1.43072
lowerback -1.03371 9.38008 10.2954
upperback -2.1896 12.5582 -5.58809
thorax 1.72242 6.36378 -10.953
lowerneck -0.790951 -5.01 -11.2375
upperneck 48.897 -1.67259 -7.06326
head 19.4161 -3.45952 -1.71626
rclavicle 2.66371e-014 1.59028e-015
rhumerus 58.6408 -1.05093 -72.2396
rradius 137.508
rwrist -60.3164
rhand -0.971248 -39.6247
rfingers 7.12502
rthumb 24.6598 -68.0559
lclavicle 2.66371e-014 1.59028e-015
lhumerus -37.3754 -26.9844 82.6751
lradius 35.9472
lwrist 19.5892
lhand -15.3396 -25.1463
lfingers 7.12502
lthumb 10.8372 4.55405
rfemur -22.7634 -28.6095 25.0382
rtibia 70.2594
rfoot -49.6474 -37.3088
rtoes 11.1747
lfemur -34.3268 -18.1946 0.779177
ltibia 16.9051
lfoot 13.5562 -4.08133
ltoes -16.3273
569
root 1.04302 15.206 -5.90154 -4.38954 -6.76571 1.55223
lowerback -1.05417 9.39767 10.1953
upperback -2.19897 12.5809 -5.63287
thorax 1.71948 6.37527 -10.941
lowerneck -0.708776 -5.02445 -11.3095
upperneck 48.8145 -1.70057 -7.06747
head 19.3405 -3.48131 -1.70017
rclavicle -3.73715e-014 -1.59028e-015
rhumerus 58.7503 -0.940537 -72.3116
rradius 137.517
rwrist -60.4115
rhand -0.60626 -39.7518
rfingers 7.12502
rthumb 25.0096 -68.1347
lclavicle -3.73715e-014 -1.59028e-015
lhumerus -37.4608 -26.7684 82.6834
lradius 35.9164
lwrist 19.5644
lhand -15.6894 -26.053
lfingers 7.12502
lthumb 10.4998 3.6648
rfemur -22.7857 -28.6132 24.8992
rtibia 70.2893
rfoot -49.5346 -37.1237
rtoes 10.3376
lfemur -34.3547 -18.1806 0.636391
ltibia 16.9406
lfoot 13.5029 -4.12155
ltoes -16.339
570
root 1.04257 15.2112 -5.89882 -4.3547 -6.73332 1.62869
lowerback -1.0689 9.42022 10.1864
upperback -2.24714 12.6121 -5.70298
thorax 1.69922 6.3891 -11.0097
lowerneck -0.749622 -5.05599 -11.3058
upperneck 48.8557 -1.71042 -7.12722
head 19.3821 -3.49347 -1.73793
rclavicle -7.59357e-014 0
rhumerus 58.8386 -0.911868 -72.411
rradius 137.516
rwrist -60.4526
rhand 0.974907 -39.4906
rfingers 7.12502
rthumb 26.5238 -67.6538
lclavicle -7.59357e-014 0
lhumerus -37.5587 -26.5914 82.6482
lradius 35.818
lwrist 19.4575
lhand -15.6337 -26.524
lfingers 7.12502
lthumb 10.5535 3.19107
rfemur -22.7899 -28.6775 24.79
rtibia 70.2943
rfoot -49.9294 -36.6623
rtoes 11.7377
lfemur -34.3898 -18.2005 0.54945
ltibia 16.9547
lfoot 13.4481 -4.14868
ltoes -16.3433
571
root 1.04187 15.2131 -5.89298 -4.31349 -6.72184 1.62016
lowerback -1.14167 9.45314 10.2572
upperback -2.26745 12.6513 -5.74527
thorax 1.75316 6.41222 -11.0765
lowerneck -0.70819 -5.07721 -11.3026
upperneck 48.8725 -1.71788 -7.18802
head 19.3838 -3.50303 -1.77026
rclavicle 4.37326e-014 -2.38542e-014
rhumerus 58.9368 -0.876495 -72.6031
rradius 137.571
rwrist -60.4045
rhand 1.07937 -39.619
rfingers 7.12502
rthumb 26.6238 -67.7671
lclavicle 4.37326e-014 -2.38542e-014
lhumerus -37.8019 -26.4719 82.6452
lradius 35.9718
lwrist 19.4561
lhand -15.3555 -25.8565
lfingers 7.12502
lthumb 10.8219 3.84466
rfemur -22.8138 -28.7332 24.8046
rtibia 70.2813
rfoot -49.9663 -36.8546
rtoes 11.7126
lfemur -34.4283 -18.2221 0.578025
ltibia 16.9642
lfoot 13.4703 -4.08641
ltoes -16.3711
572
root 1.04021 15.2113 -5.8877 -4.2943 -6.71462 1.58717
lowerback -1.21368 9.48637 10.2702
upperback -2.26912 12.6889 -5.72871
thorax 1.80016 6.43322 -11.0468
lowerneck -0.585332 -5.08952 -11.3465
upperneck 48.8584 -1.72888 -7.22469
head 19.3447 -3.51714 -1.77686
rclavicle -4.94974e-014 -1.74931e-014
rhumerus 59.0357 -0.814194 -72.7488
rradius 137.698
rwrist -60.3794
rhand -0.784234 -39.8442
rfingers 7.12502
rthumb 24.839 -68.2508
lclavicle -4.94974e-014 -1.74931e-014
lhumerus -38.0794 -26.3632 82.7363
lradius 36.2389
lwrist 19.4246
lhand -15.1716 -24.9741
lfingers 7.12502
lthumb 10.9993 4.71772
rfemur -22.8337 -28.7465 24.8703
rtibia 70.2687
rfoot -49.8289 -37.0123
rtoes 11.3097
lfemur -34.4512 -18.2373 0.636314
ltibia 16.9741
lfoot 13.478 -4.04939
ltoes -16.5575
573
root 1.03892 15.2096 -5.88996 -4.24139 -6.65331 1.49085
lowerback -1.12175 9.48949 10.3612
upperback -2.36015 12.7022 -5.73093
thorax 1.67538 6.4286 -11.1234
lowerneck -0.567751 -5.09391 -11.3155
upperneck 48.9577 -1.71106 -7.26236
head 19.4098 -3.51072 -1.80675
rclavicle -1.0635e-013 -3.97569e-014
rhumerus 59.1074 -0.805375 -72.8345
rradius 137.816
rwrist -60.5357
rhand -1.82573 -39.7458
rfingers 7.12502
rthumb 23.8405 -68.2863
lclavicle -1.0635e-013 -3.97569e-014
lhumerus -38.2864 -26.2267 82.7764
lradius 36.2537
lwrist 19.2965
lhand -14.97 -23.9071
lfingers 7.12502
lthumb 11.1937 5.77432
rfemur -22.9413 -28.8035 25.044
rtibia 70.2724
rfoot -49.6976 -37.1141
rtoes 10.2365
lfemur -34.5351 -18.1717 0.724344
ltibia 16.9843
lfoot 13.4621 -4.17827
ltoes -16.7173
574
root 1.0389 15.2076 -5.89172 -4.19233 -6.5365 1.4166
lowerback -0.954923 9.46352 10.4926
upperback -2.50519 12.6861 -5.79273
thorax 1.46593 6.40274 -11.3108
lowerneck -0.544812 -5.09158 -11.2202
upperneck 49.0918 -1.67992 -7.3282
head 19.494 -3.49265 -1.86316
rclavicle -3.97569e-014 -1.59028e-014
rhumerus 59.1029 -0.791853 -72.9761
rradius 137.852
rwrist -60.6069
rhand -1.69291 -39.4456
rfingers 7.12502
rthumb 23.9679 -67.9694
lclavicle -3.97569e-014 -1.59028e-014
lhumerus -38.4667 -26.0849 82.7335
lradius 36.0432
lwrist 19.1928
lhand -14.7212 -23.1348
lfingers 7.12502
lthumb 11.4336 6.53343
rfemur -23.0097 -28.9282 25.1495
rtibia 70.2881
rfoot -49.5758 -37.2632
rtoes 10.8032
lfemur -34.6316 -18.1288 0.767526
ltibia 16.9763
lfoot 13.4455 -4.33543
ltoes -16.6599
575
root 1.04047 15.2057 -5.88885 -4.10146 -6.37231 1.54912
lowerback -1.01364 9.44088 10.3832
upperback -2.5961 12.6522 -5.88274
thorax 1.39068 6.37811 -11.3529
lowerneck -0.455743 -5.12579 -11.3024
upperneck 49.1325 -1.73704 -7.30895
head 19.5061 -3.53007 -1.84949
rclavicle -2.70347e-014 -2.8625e-014
rhumerus 59.1257 -0.706398 -73.1344
rradius 137.914
rwrist -60.4841
rhand -1.26987 -38.8307
rfingers 7.12502
rthumb 24.3735 -67.3007
lclavicle -2.70347e-014 -2.8625e-014
lhumerus -38.4963 -25.8664 82.6968
lradius 35.7103
lwrist 19.0307
lhand -14.5501 -22.5153
lfingers 7.12502
lthumb 11.5986 7.14369
rfemur -23.0999 -29.0948 24.9986
rtibia 70.3286
rfoot -49.768 -37.0584
rtoes 10.0915
lfemur -34.7907 -18.168 0.61475
ltibia 16.9527
lfoot 13.4116 -4.42265
ltoes -16.6176
